<svg xmlns="http://www.w3.org/2000/svg" width="2246" height="1588" viewBox="0 0 2246 1588">
  <rect width="2246" height="1588" fill="#FFFEFB"/>
  <rect x="0" y="0" width="2246" height="1588" fill="none" stroke="#0B1220" stroke-width="12"/>
  <g opacity="0.35">
    <path d="M0 24 H1200 M0 48 H1200 M0 72 H1200 M0 96 H1200 M0 120 H1200" stroke="#E3ECFB" stroke-width="1"/>
    <path d="M24 0 V630 M48 0 V630 M72 0 V630 M96 0 V630" stroke="#E3ECFB" stroke-width="1"/>
  </g>
  <rect x="42" y="42" width="1116" height="546" fill="#FFFFFF" stroke="#0B1220" stroke-width="2"/>
  <rect x="42" y="42" width="1116" height="38" fill="#0B1220"/>
  <text x="62" y="66" font-family="Fragment Mono, monospace" font-size="11" letter-spacing="2" fill="#FFD400">LAB NOTEBOOK No.01 — HARIOM LOHAR</text>
  <text x="1098" y="66" font-family="Fragment Mono, monospace" font-size="10" fill="#8A9AB6" text-anchor="end">hariomlohardev.github.io/opensource.html</text>
  <text x="62" y="148" font-family="Fragment Mono, monospace" font-size="12" letter-spacing="4" fill="#6E7D9A">OPEN SOURCE — AUTO-SYNCED</text>
  <text x="62" y="250" font-family="Bricolage Grotesque, sans-serif" font-size="86" font-weight="800" fill="#0B1220">OPEN</text>
  <text x="62" y="334" font-family="Bricolage Grotesque, sans-serif" font-size="86" font-weight="800" fill="transparent" stroke="#0B1220" stroke-width="3">SOURCE</text>
  <rect x="62" y="360" width="420" height="14" fill="#FFD400" stroke="#0B1220" stroke-width="1.5" transform="rotate(-0.6 62 360)"/>
  <text x="62" y="420" font-family="Instrument Sans, sans-serif" font-size="20" fill="#334155">Contributions by Hariom Lohar (hariomlohardev) — repos, PRs &amp; activity.</text>
  <text x="62" y="452" font-family="Fragment Mono, monospace" font-size="11" fill="#6E7D9A">Auto-synced from api.github.com/users/hariomlohardev — Live on hariomlohardev.github.io</text>
  <g transform="translate(62 490)">
    <rect width="210" height="36" fill="#0B1220" stroke="#0B1220"/>
    <text x="16" y="23" font-family="Fragment Mono, monospace" font-size="11" letter-spacing="1" fill="#FFD400">hariomlohardev ↗</text>
    <rect x="224" width="160" height="36" fill="#FFD400" stroke="#0B1220"/>
    <text x="240" y="23" font-family="Fragment Mono, monospace" font-size="11" letter-spacing="1" fill="#0B1220" font-weight="600">View on GitHub →</text>
  </g>
</svg>